<?xml version="1.0" standalone="no"?>
<!DOCTYPE svg PUBLIC "-//W3C//DTD SVG 20010904//EN"
 "http://www.w3.org/TR/2001/REC-SVG-20010904/DTD/svg10.dtd">
<svg version="1.0" xmlns="http://www.w3.org/2000/svg"
 width="500.000000pt" height="500.000000pt" viewBox="0 0 500.000000 500.000000"
 preserveAspectRatio="xMidYMid meet">
<metadata>
Created by potrace 1.11, written by Peter Selinger 2001-2013
</metadata>
<g transform="translate(0.000000,500.000000) scale(0.100000,-0.100000)"
fill="#000000" stroke="none">
<path d="M2335 4950 c-11 -5 -330 -111 -710 -235 -379 -125 -708 -233 -730
-240 -22 -8 -159 -53 -305 -100 -146 -48 -271 -92 -278 -99 -10 -9 -13 -89
-13 -348 l0 -336 75 -119 c71 -114 649 -1050 694 -1124 l22 -36 -26 -29 c-51
-59 -118 -168 -145 -238 -41 -107 -42 -152 -1 -196 45 -50 121 -63 322 -55
l168 6 32 -52 c17 -28 29 -57 26 -65 -17 -45 -195 -124 -283 -126 -38 0 -46 5
-95 54 -75 77 -132 98 -263 94 -119 -3 -169 -21 -243 -90 -82 -77 -185 -234
-240 -366 -34 -81 -41 -104 -57 -170 -37 -161 -11 -206 175 -302 211 -110 640
-239 910 -274 64 -8 202 -7 245 2 49 11 73 33 90 85 23 68 23 75 8 138 -18 78
-18 79 25 90 84 23 303 -8 472 -66 85 -30 178 -71 185 -84 3 -4 -13 -13 -37
-19 -70 -20 -166 -70 -186 -98 -27 -38 -50 -112 -46 -147 2 -16 12 -40 22 -54
60 -81 279 -176 542 -235 145 -32 218 -41 350 -40 101 0 108 1 180 37 162 80
239 183 400 531 41 91 62 116 89 111 9 -2 21 -4 27 -4 6 -1 48 -28 93 -62 91
-66 179 -114 226 -124 17 -3 56 -6 88 -6 145 0 343 158 424 341 72 160 62 288
-26 348 -99 67 -175 80 -311 55 -118 -23 -186 -21 -211 4 -12 12 -17 26 -13
36 8 21 98 92 222 177 105 71 145 114 167 179 31 91 14 126 -85 178 -106 56
-215 83 -570 139 -19 3 -37 7 -38 9 -2 2 20 16 50 31 29 14 145 77 258 139
113 62 232 127 265 144 67 36 182 101 207 116 8 6 19 20 22 33 6 19 -2 31 -46
72 -29 27 -56 50 -60 50 -5 0 -8 94 -8 208 l0 209 50 27 c58 31 76 57 61 85
-6 10 -55 56 -108 102 -54 46 -100 86 -103 89 -4 4 -273 235 -455 390 -16 14
-50 43 -75 65 -25 23 -61 54 -80 69 -19 16 -64 54 -100 86 -36 31 -103 90
-150 129 -47 40 -96 83 -110 95 -14 12 -119 102 -235 201 -115 99 -212 182
-215 185 -3 3 -84 73 -180 155 -96 82 -177 152 -180 155 -3 3 -31 27 -63 53
-59 47 -76 53 -112 37z"/>
</g>
</svg>
